REM DIRINDEX 1\2,1\3
REM DIRNAME cjc039,folder01,folder02
TITLE ""
FILE "3081-3100.mp3" MP3
  TRACK 01 AUDIO
    TITLE "0:"
    INDEX 01 00:00:00
  TRACK 02 AUDIO
    TITLE "2:cjc039_5161"
    INDEX 01 00:00:21
  TRACK 03 AUDIO
    TITLE "0:"
    INDEX 01 00:01:36
  TRACK 04 AUDIO
    TITLE "3:cjc039_5162"
    INDEX 01 00:02:12
  TRACK 05 AUDIO
    TITLE "0:"
    INDEX 01 00:05:34
  TRACK 06 AUDIO
    TITLE "2:cjc039_5163"
    INDEX 01 00:07:11
  TRACK 07 AUDIO
    TITLE "0:"
    INDEX 01 00:08:50
  TRACK 08 AUDIO
    TITLE "3:cjc039_5164"
    INDEX 01 00:09:24
  TRACK 09 AUDIO
    TITLE "0:"
    INDEX 01 00:13:18
  TRACK 10 AUDIO
    TITLE "2:cjc039_5165"
    INDEX 01 00:14:66
  TRACK 11 AUDIO
    TITLE "0:"
    INDEX 01 00:16:20
  TRACK 12 AUDIO
    TITLE "3:cjc039_5166"
    INDEX 01 00:16:69
  TRACK 13 AUDIO
    TITLE "0:"
    INDEX 01 00:21:11
  TRACK 14 AUDIO
    TITLE "2:cjc039_5167"
    INDEX 01 00:22:58
  TRACK 15 AUDIO
    TITLE "0:"
    INDEX 01 00:24:10
  TRACK 16 AUDIO
    TITLE "3:cjc039_5168"
    INDEX 01 00:24:57
  TRACK 17 AUDIO
    TITLE "0:"
    INDEX 01 00:28:08
  TRACK 18 AUDIO
    TITLE "2:cjc039_5169"
    INDEX 01 00:29:52
  TRACK 19 AUDIO
    TITLE "0:"
    INDEX 01 00:30:46
  TRACK 20 AUDIO
    TITLE "3:cjc039_5170"
    INDEX 01 00:31:24
  TRACK 21 AUDIO
    TITLE "0:"
    INDEX 01 00:33:56
  TRACK 22 AUDIO
    TITLE "2:cjc039_5171"
    INDEX 01 00:35:27
  TRACK 23 AUDIO
    TITLE "0:"
    INDEX 01 00:36:66
  TRACK 24 AUDIO
    TITLE "3:cjc039_5172"
    INDEX 01 00:37:40
  TRACK 25 AUDIO
    TITLE "0:"
    INDEX 01 00:40:66
  TRACK 26 AUDIO
    TITLE "2:cjc039_5173"
    INDEX 01 00:42:45
  TRACK 27 AUDIO
    TITLE "0:"
    INDEX 01 00:43:64
  TRACK 28 AUDIO
    TITLE "3:cjc039_5174"
    INDEX 01 00:44:38
  TRACK 29 AUDIO
    TITLE "0:"
    INDEX 01 00:48:02
  TRACK 30 AUDIO
    TITLE "2:cjc039_5175"
    INDEX 01 00:49:51
  TRACK 31 AUDIO
    TITLE "0:"
    INDEX 01 00:50:56
  TRACK 32 AUDIO
    TITLE "3:cjc039_5176"
    INDEX 01 00:51:28
  TRACK 33 AUDIO
    TITLE "0:"
    INDEX 01 00:55:20
  TRACK 34 AUDIO
    TITLE "2:cjc039_5177"
    INDEX 01 00:56:63
  TRACK 35 AUDIO
    TITLE "0:"
    INDEX 01 00:58:03
  TRACK 36 AUDIO
    TITLE "3:cjc039_5178"
    INDEX 01 00:58:56
  TRACK 37 AUDIO
    TITLE "0:"
    INDEX 01 01:02:18
  TRACK 38 AUDIO
    TITLE "2:cjc039_5179"
    INDEX 01 01:03:69
  TRACK 39 AUDIO
    TITLE "0:"
    INDEX 01 01:05:26
  TRACK 40 AUDIO
    TITLE "3:cjc039_5180"
    INDEX 01 01:06:00
  TRACK 41 AUDIO
    TITLE "0:"
    INDEX 01 01:10:69
  TRACK 42 AUDIO
    TITLE "2:cjc039_5181"
    INDEX 01 01:12:44
  TRACK 43 AUDIO
    TITLE "0:"
    INDEX 01 01:13:59
  TRACK 44 AUDIO
    TITLE "3:cjc039_5182"
    INDEX 01 01:14:33
  TRACK 45 AUDIO
    TITLE "0:"
    INDEX 01 01:17:18
  TRACK 46 AUDIO
    TITLE "2:cjc039_5183"
    INDEX 01 01:18:66
  TRACK 47 AUDIO
    TITLE "0:"
    INDEX 01 01:20:28
  TRACK 48 AUDIO
    TITLE "3:cjc039_5184"
    INDEX 01 01:21:04
  TRACK 49 AUDIO
    TITLE "0:"
    INDEX 01 01:25:17
  TRACK 50 AUDIO
    TITLE "2:cjc039_5185"
    INDEX 01 01:26:68
  TRACK 51 AUDIO
    TITLE "0:"
    INDEX 01 01:28:06
  TRACK 52 AUDIO
    TITLE "3:cjc039_5186"
    INDEX 01 01:28:55
  TRACK 53 AUDIO
    TITLE "0:"
    INDEX 01 01:32:27
  TRACK 54 AUDIO
    TITLE "2:cjc039_5187"
    INDEX 01 01:34:03
  TRACK 55 AUDIO
    TITLE "0:"
    INDEX 01 01:35:31
  TRACK 56 AUDIO
    TITLE "3:cjc039_5188"
    INDEX 01 01:36:07
  TRACK 57 AUDIO
    TITLE "0:"
    INDEX 01 01:40:31
  TRACK 58 AUDIO
    TITLE "2:cjc039_5189"
    INDEX 01 01:42:08
  TRACK 59 AUDIO
    TITLE "0:"
    INDEX 01 01:43:23
  TRACK 60 AUDIO
    TITLE "3:cjc039_5190"
    INDEX 01 01:44:05
  TRACK 61 AUDIO
    TITLE "0:"
    INDEX 01 01:48:32
  TRACK 62 AUDIO
    TITLE "2:cjc039_5191"
    INDEX 01 01:50:06
  TRACK 63 AUDIO
    TITLE "0:"
    INDEX 01 01:51:38
  TRACK 64 AUDIO
    TITLE "3:cjc039_5192"
    INDEX 01 01:52:14
  TRACK 65 AUDIO
    TITLE "0:"
    INDEX 01 01:55:32
  TRACK 66 AUDIO
    TITLE "2:cjc039_5193"
    INDEX 01 01:57:06
  TRACK 67 AUDIO
    TITLE "0:"
    INDEX 01 01:58:29
  TRACK 68 AUDIO
    TITLE "3:cjc039_5194"
    INDEX 01 01:59:06
  TRACK 69 AUDIO
    TITLE "0:"
    INDEX 01 02:02:46
  TRACK 70 AUDIO
    TITLE "2:cjc039_5195"
    INDEX 01 02:04:19
  TRACK 71 AUDIO
    TITLE "0:"
    INDEX 01 02:05:62
  TRACK 72 AUDIO
    TITLE "3:cjc039_5196"
    INDEX 01 02:06:40
  TRACK 73 AUDIO
    TITLE "0:"
    INDEX 01 02:12:05
  TRACK 74 AUDIO
    TITLE "2:cjc039_5197"
    INDEX 01 02:13:57
  TRACK 75 AUDIO
    TITLE "0:"
    INDEX 01 02:14:63
  TRACK 76 AUDIO
    TITLE "3:cjc039_5198"
    INDEX 01 02:15:43
  TRACK 77 AUDIO
    TITLE "0:"
    INDEX 01 02:18:65
  TRACK 78 AUDIO
    TITLE "2:cjc039_5199"
    INDEX 01 02:20:36
  TRACK 79 AUDIO
    TITLE "0:"
    INDEX 01 02:21:47
  TRACK 80 AUDIO
    TITLE "3:cjc039_5200"
    INDEX 01 02:22:19
  TRACK 81 AUDIO
    TITLE "0:"
    INDEX 01 02:25:57
